<svg xmlns="http://www.w3.org/2000/svg" width="180" height="180" viewBox="0 0 95 95">
  <circle cx="46" cy="49" r="45" width="180" height="180" fill="white" />
  <path d="M62.9001 67.51L62.1801 66.6399C61.3732 65.5658 60.4548 64.5803 59.4401 63.7L58.7801 63.81C56.9801 64.09 53.2601 64.68 49.9501 65.32C49.3801 66.51 50.9501 72.6499 52.3601 73.8499C55.761 74.2164 59.2007 73.8061 62.4201 72.65C63.2601 72.33 64.2001 71.96 65.1701 71.65C64.8101 71.06 64.4801 70.39 64.1701 69.76C63.8214 68.9702 63.3961 68.2165 62.9001 67.51Z" fill="#E85924"/>
  <path d="M47.22 1.32221e-05C37.9504 -0.00692277 28.884 2.71513 21.1512 7.82671C13.4184 12.9383 7.3615 20.2132 3.73581 28.7443C0.110121 37.2753 -0.923917 46.6849 0.762648 55.7997C2.44921 64.9145 6.78175 73.3312 13.22 80C13.3 79.62 13.37 79.24 13.45 78.86C14.71 72.62 16.02 66.16 17.22 63.31C19.84 57.1 25.42 45.84 25.48 45.73C26.83 43.29 28.35 40.36 29.83 37.53C31.83 33.76 33.66 30.19 35.09 27.8C36.09 26.13 36.9 24.45 37.63 22.97C39.52 19.13 41.29 15.48 44.63 16.97C46.03 17.6 47.4 18.39 47.93 19.91C48.36 21.12 48.19 22.55 47.32 24.68C49.95 22.21 52.09 20.26 53.16 19.41C53.9 18.81 54.58 18.23 55.22 17.68C58.47 14.9 61.54 12.27 65.82 14.95C66.3614 15.23 66.8364 15.6231 67.2125 16.1028C67.5887 16.5824 67.8572 17.1374 68 17.73C68.36 19.93 66.64 22.03 64.25 24.94C63.9 25.38 63.52 25.84 63.13 26.31L59.49 30.87C64.98 27.03 70.49 23.34 73.49 26.45C73.9517 26.9014 74.3146 27.4439 74.5556 28.0429C74.7966 28.642 74.9104 29.2846 74.89 29.93C74.76 33.15 71.39 36.19 67.12 40.04C65.68 41.33 64.2 42.67 62.78 44.04C60.98 45.82 57.41 49.57 55.02 52.09C58.35 51.97 61.28 51.92 62.27 52.04C66.13 52.51 72.19 62.29 72.27 62.39C73.44 64.32 73.41 68.1 72.21 70.65C72.1041 70.8839 71.9839 71.111 71.85 71.33C72.5256 71.6868 73.0897 72.2231 73.48 72.88C73.7905 73.4107 73.9698 74.008 74.0028 74.622C74.0359 75.236 73.9217 75.849 73.67 76.41C72.9809 77.8787 72.0074 79.1961 70.8059 80.286C69.6043 81.376 68.1986 82.2169 66.67 82.76C65.5 83.14 62.67 83.91 59.42 84.76C53.7 86.32 45.87 88.47 44.35 89.22C43.56 89.61 42.44 91.94 41.57 93.99C43.4615 94.218 45.3647 94.3349 47.27 94.34C59.4042 93.7747 70.8539 88.5549 79.2389 79.7656C87.6239 70.9762 92.2991 59.2936 92.2927 47.1461C92.2862 34.9987 87.5986 23.321 79.2043 14.5406C70.8101 5.76011 59.3548 0.55241 47.22 1.32221e-05Z" fill="#E85924"/>
  <path d="M44.2992 89.3099C45.8192 88.5599 53.6492 86.4099 59.3692 84.8499C62.6292 83.9499 65.4492 83.1799 66.6192 82.8499C68.1479 82.3068 69.5536 81.4659 70.7551 80.3759C71.9567 79.2859 72.9301 77.9685 73.6192 76.4999C73.871 75.9389 73.9851 75.3259 73.9521 74.7119C73.919 74.0979 73.7398 73.5006 73.4292 72.9699C73.0389 72.313 72.4749 71.7767 71.7992 71.4199C71.9331 71.2009 72.0533 70.9738 72.1592 70.7399C73.3592 68.1899 73.3892 64.4099 72.2192 62.4799C72.1592 62.3799 66.0992 52.5999 62.2192 52.1299C61.2192 52.0099 58.2992 52.0599 54.9692 52.1799C57.3592 49.6599 60.9692 45.9099 62.7292 44.1299C64.1492 42.7199 65.6292 41.3799 67.0692 40.1299C71.3392 36.2799 74.7092 33.2399 74.8392 30.0199C74.8597 29.3745 74.7458 28.7319 74.5048 28.1328C74.2638 27.5338 73.901 26.9913 73.4392 26.5399C70.5092 23.4299 64.9492 27.1199 59.4392 30.9599L63.0792 26.3999C63.4692 25.9299 63.8492 25.4699 64.1992 25.0299C66.5892 22.1199 68.3092 20.0299 67.9492 17.8199C67.8216 17.2137 67.5631 16.6428 67.1917 16.147C66.8204 15.6513 66.3451 15.2427 65.7992 14.9499C61.5192 12.2699 58.4492 14.9499 55.1992 17.6799C54.5592 18.2299 53.8792 18.8099 53.1392 19.4099C52.0692 20.2599 49.9292 22.2099 47.2992 24.6799C48.1692 22.5499 48.2992 21.1199 47.9092 19.9099C47.3792 18.3899 46.0092 17.5999 44.6092 16.9699C41.2892 15.4599 39.5192 19.1099 37.6092 22.9699C36.8792 24.4499 36.0592 26.1299 35.0692 27.7999C33.6392 30.1899 31.7792 33.7999 29.8092 37.5299C28.3292 40.3599 26.8092 43.2899 25.4592 45.7299C25.4592 45.7299 19.8192 57.0499 17.1992 63.2599C15.9992 66.1099 14.6892 72.5699 13.4292 78.8099C13.3492 79.1899 13.2792 79.5699 13.1992 79.9499C13.9792 80.7599 14.7792 81.5399 15.6192 82.2999C15.8092 81.3599 16.0092 80.3899 16.2092 79.3699C17.3892 73.5499 18.7192 66.9499 19.8092 64.3699C22.1992 58.7099 27.0992 48.7499 27.8892 47.1699C30.0192 45.0999 50.8892 24.7799 54.8892 21.5299C55.6492 20.9199 56.3492 20.3199 57.0192 19.7499C60.3792 16.8699 61.8392 15.7499 64.2592 17.2699C64.6292 17.4999 65.0692 17.8399 65.1192 18.1999C65.2792 19.1299 63.5992 21.1999 61.9792 23.1499L60.8492 24.5499C57.7292 28.4299 52.4392 35.1199 51.5792 36.2199C45.9992 40.1099 37.9992 45.9999 35.6592 47.8399C35.4583 47.9981 35.3042 48.2079 35.2133 48.447C35.1225 48.6861 35.0984 48.9453 35.1436 49.197C35.1888 49.4487 35.3016 49.6834 35.47 49.8759C35.6383 50.0684 35.8558 50.2115 36.0992 50.2899C36.3229 50.3673 36.5627 50.3859 36.7956 50.3439C37.0285 50.3018 37.2467 50.2006 37.4292 50.0499C40.2792 47.7699 51.3592 39.6599 56.4992 36.3499C57.7292 35.5499 59.0092 34.6499 60.3792 33.6899C63.9692 31.1699 69.9992 26.9399 71.3792 28.3999C71.5773 28.577 71.7351 28.7945 71.842 29.0377C71.949 29.2809 72.0026 29.5442 71.9992 29.8099C71.9192 31.8099 68.6392 34.8099 65.1692 37.9299C63.7092 39.2499 62.1692 40.6099 60.7292 42.0699C58.2192 44.5599 52.4792 50.6299 50.9092 52.2999C46.9092 52.4799 43.2392 52.6899 42.4392 52.7299C42.0634 52.7531 41.7118 52.9237 41.4609 53.2045C41.21 53.4853 41.0801 53.8538 41.0992 54.2299C41.1094 54.4161 41.1564 54.5984 41.2375 54.7662C41.3186 54.9341 41.4322 55.0842 41.5717 55.2079C41.7112 55.3316 41.8738 55.4264 42.0502 55.4868C42.2266 55.5472 42.4132 55.5721 42.5992 55.5599C45.2492 55.4099 48.4992 55.2499 51.5992 55.1099C56.4192 54.8999 60.8192 54.7599 61.8692 54.8899C63.2692 55.0599 67.4792 60.1099 69.7692 63.8899C70.3892 64.8899 70.4392 67.6299 69.5692 69.4799C69.4528 69.8095 69.2652 70.1094 69.0198 70.3582C68.7744 70.6071 68.4771 70.7989 68.1492 70.9199C67.5729 70.1747 67.0956 69.3579 66.7292 68.4899C66.2836 67.4905 65.7268 66.5445 65.0692 65.6699L64.3792 64.8299C62.2092 62.1899 60.7892 60.6099 59.1992 60.8299L58.3392 60.9699C56.5092 61.2599 52.6892 61.8699 49.3392 62.5299C48.6892 62.6499 47.1592 63.2399 47.0592 65.9299C46.9492 68.8699 48.9592 75.6699 51.4592 76.4999H51.5492C53.6392 77.0599 59.3292 76.8499 63.4892 75.2299C65.0751 74.5575 66.723 74.0417 68.4092 73.6899H68.5492C69.7692 73.5199 70.6192 73.6899 71.0192 74.3499C71.0927 74.5187 71.1306 74.7008 71.1306 74.8849C71.1306 75.069 71.0927 75.2511 71.0192 75.4199C69.9319 77.5601 68.0792 79.2129 65.8292 80.0499C64.7192 80.4099 61.9292 81.1699 58.6992 82.0499C50.7992 84.2599 44.6792 85.9999 43.0492 86.7599C41.4192 87.5199 40.0492 90.2799 38.6292 93.6399C39.5792 93.8099 40.5492 93.9599 41.5192 94.0799C42.3892 91.9999 43.5092 89.6999 44.2992 89.3099ZM43.7392 25.5399C42.7392 27.4499 41.8492 29.3699 41.5392 30.0399C38.3192 33.1099 34.9892 36.3199 32.2092 39.0399C32.2092 38.9499 32.2992 38.8599 32.3592 38.7699C34.3592 35.0199 36.1492 31.4899 37.5292 29.1699C38.5292 27.4099 39.4392 25.6699 40.1892 24.1699C41.3992 21.7099 42.6692 19.1699 43.4592 19.5299C44.5692 20.0299 45.1092 20.4099 45.2392 20.8299C45.6292 21.8299 44.2092 24.6199 43.7392 25.5399ZM62.4192 72.6499C59.1999 73.8061 55.7602 74.2164 52.3592 73.8499C50.9092 72.6499 49.3592 66.5099 49.9492 65.3199C53.2592 64.6799 56.9492 64.0899 58.7792 63.8099L59.4392 63.6999C60.4539 64.5803 61.3724 65.5658 62.1792 66.6399L62.8992 67.5099C63.3946 68.2133 63.82 68.9636 64.1692 69.7499C64.4792 70.3799 64.8092 71.0499 65.1692 71.6399C64.1992 71.9999 63.2592 72.3299 62.4192 72.6499Z" fill="black"/>
</svg>
