<svg width="144" height="161" viewBox="0 0 144 161" fill="none" xmlns="http://www.w3.org/2000/svg">
<g id="Layer 2">
<g id="Layer 1">
<path id="Vector" d="M18.1626 45.8328C18.2516 45.7127 18.3676 45.6151 18.5013 45.5479C18.635 45.4807 18.7827 45.4458 18.9323 45.446C19.0336 45.4411 19.1346 45.4596 19.2275 45.5001C19.3204 45.5406 19.4027 45.6019 19.468 45.6794C19.5332 45.7568 19.5797 45.8482 19.6037 45.9465C19.6277 46.0448 19.6287 46.1473 19.6065 46.2461C19.0796 48.3665 18.3027 50.4172 17.2921 52.3551L17.2124 52.4716C17.0998 52.6398 16.926 52.7576 16.7278 52.8001C16.5297 52.8426 16.3227 52.8066 16.1508 52.6995C16.0961 52.6868 16.0451 52.6614 16.0022 52.6253C15.9195 52.5747 15.8481 52.5079 15.7921 52.4289C15.736 52.3499 15.6967 52.2604 15.6763 52.1658C15.656 52.0712 15.6551 51.9735 15.6737 51.8785C15.6923 51.7835 15.73 51.6933 15.7845 51.6133C16.7717 49.9271 17.5185 48.1117 18.0034 46.2196C18.0247 46.0798 18.0794 45.9472 18.1626 45.8328ZM11.2034 25.1692C12.005 24.1095 12.7959 23.8711 13.6771 24.5334L14.8449 25.4023C15.1687 25.646 15.0838 26.0699 14.7919 26.462C14.4999 26.8541 14.1018 27.0766 13.778 26.8382L12.8119 26.1176C12.4934 25.8792 12.281 25.9851 11.9731 26.3825C8.66076 30.8508 5.41385 35.3668 2.2324 39.9304C1.96699 40.3119 1.92452 40.5768 2.27487 40.8205L3.22506 41.4775C3.55417 41.7054 3.48516 42.1345 3.19321 42.5372C2.90125 42.9399 2.55621 43.1359 2.22179 42.9081L1.03804 42.108C0.125006 41.4828 0.0772316 40.6722 0.836319 39.6072C2.30141 37.4879 3.77889 35.3933 5.26876 33.3234L4.61583 32.8624C4.24956 32.5975 4.31326 32.1895 4.6583 31.7127C5.00334 31.2358 5.36961 31.0398 5.71996 31.3047L6.36758 31.7709C7.96361 29.5633 9.57556 27.3662 11.2034 25.1798V25.1692ZM4.30264 41.0643C4.26082 41.1271 4.20605 41.1802 4.142 41.2202C4.07795 41.2602 4.00609 41.286 3.93122 41.296C3.85635 41.3061 3.7802 41.3 3.70785 41.2783C3.63551 41.2567 3.56864 41.2198 3.51171 41.1702C3.44511 41.1342 3.38702 41.0843 3.34133 41.024C3.29564 40.9637 3.26341 40.8943 3.24682 40.8205C3.23023 40.7468 3.22965 40.6703 3.24512 40.5963C3.26059 40.5222 3.29176 40.4524 3.33653 40.3914C4.57868 38.6041 5.83321 36.8273 7.10012 35.0612C7.14279 34.9992 7.19821 34.947 7.26267 34.908C7.32714 34.869 7.39918 34.8442 7.47401 34.8352C7.54883 34.8262 7.62472 34.8332 7.69663 34.8557C7.76854 34.8782 7.83482 34.9158 7.89106 34.9659C7.95681 35.0028 8.0139 35.0534 8.05853 35.1141C8.10316 35.1749 8.1343 35.2444 8.14988 35.3181C8.16545 35.3918 8.1651 35.468 8.14884 35.5416C8.13259 35.6151 8.10081 35.6844 8.05562 35.7447L6.46313 38.0124L7.48232 38.733C7.96007 38.0548 8.44312 37.3819 8.92087 36.709C8.96079 36.6482 9.01357 36.5968 9.07551 36.5585C9.13744 36.5202 9.20703 36.4959 9.27938 36.4873C9.35172 36.4788 9.42508 36.4861 9.49428 36.5088C9.56349 36.5316 9.62686 36.5691 9.67996 36.6189C9.74778 36.6544 9.80711 36.7041 9.85388 36.7647C9.90064 36.8252 9.93373 36.8951 9.95088 36.9696C9.96802 37.0441 9.96882 37.1214 9.95321 37.1962C9.9376 37.2711 9.90595 37.3416 9.86044 37.4031L8.4272 39.4218L9.48886 40.1583C10.0197 39.2204 10.5027 38.3197 10.8796 37.5515C10.9064 37.4823 10.944 37.418 10.9911 37.3607C11.022 37.3052 11.0643 37.2567 11.1151 37.2184C11.1659 37.1802 11.2242 37.1529 11.2861 37.1384C11.3481 37.124 11.4125 37.1226 11.475 37.1344C11.5376 37.1462 11.5969 37.171 11.6493 37.2071C11.7041 37.2197 11.755 37.2451 11.798 37.2812C12.0262 37.4455 12.0846 37.6945 11.9148 38.0495C10.8531 40.1688 9.28714 43.0882 7.89106 45.3559L7.86452 45.393C7.82228 45.4721 7.76364 45.5413 7.69249 45.596C7.62135 45.6507 7.53934 45.6896 7.45193 45.7102C7.36452 45.7308 7.27373 45.7325 7.1856 45.7152C7.09748 45.698 7.01405 45.6622 6.94087 45.6103H6.90371C6.83009 45.5648 6.76699 45.5042 6.71862 45.4326C6.67025 45.3609 6.6377 45.2798 6.62314 45.1946C6.60858 45.1094 6.61234 45.0221 6.63418 44.9385C6.65601 44.8548 6.69541 44.7768 6.74977 44.7095C7.36554 43.7823 8.045 42.6856 8.71916 41.5623L7.49824 40.7146C6.98865 41.421 6.48259 42.1434 5.98007 42.8816C5.93652 42.9404 5.88126 42.9895 5.81777 43.0259C5.75428 43.0623 5.68393 43.0852 5.61114 43.0932C5.53835 43.1012 5.4647 43.094 5.39481 43.0722C5.32493 43.0504 5.26032 43.0143 5.20506 42.9664C5.14382 42.93 5.09055 42.8817 5.04841 42.8244C5.00628 42.767 4.97614 42.7018 4.95979 42.6326C4.94344 42.5634 4.94123 42.4916 4.95327 42.4215C4.96531 42.3514 4.99137 42.2844 5.02988 42.2246C5.5324 41.497 6.04023 40.7729 6.55337 40.0523L5.52886 39.3317L4.30264 41.0643ZM16.6391 47.6554C15.8907 48.7151 15.1687 48.8953 14.2239 48.2383L10.3116 45.5361C9.34023 44.8685 9.29776 44.1002 10.0887 42.977C12.4739 39.5825 14.8963 36.2145 17.3558 32.873C18.2316 31.6862 18.9483 31.5219 19.8878 32.2266L23.7151 35.0559C24.6441 35.7447 24.7025 36.4971 23.9275 37.5462C21.4609 40.8912 19.0314 44.261 16.6391 47.6554ZM18.8527 33.6837C18.513 33.4346 18.29 33.5406 18.0299 33.8903C15.7686 36.9916 13.5249 40.1141 11.299 43.2578C11.0654 43.5916 11.0336 43.8353 11.3839 44.079L11.8457 44.4022C14.2946 40.9195 16.7825 37.4632 19.3092 34.0333L18.8527 33.6837ZM20.2382 34.7062C17.7185 38.1219 15.2413 41.5711 12.8066 45.0539L13.7196 45.6897C16.1579 42.2211 18.6351 38.7789 21.1512 35.3632L20.2382 34.7062ZM14.6379 46.3626L15.1687 46.7388C15.5138 46.9825 15.6996 46.8607 15.9491 46.5322C18.1361 43.4238 20.3567 40.3366 22.611 37.2706C22.8658 36.9263 22.9136 36.6984 22.5738 36.4441L22.043 36.0573C19.5446 39.4589 17.0762 42.894 14.6379 46.3626ZM15.62 27.1614C15.6599 27.1028 15.712 27.0535 15.7728 27.0168C15.8336 26.9802 15.9015 26.957 15.9721 26.949C16.0426 26.9409 16.1141 26.9482 16.1815 26.9702C16.249 26.9922 16.311 27.0285 16.3631 27.0766C16.4265 27.1137 16.4815 27.1636 16.5245 27.2231C16.5676 27.2825 16.5978 27.3503 16.6133 27.422C16.6288 27.4937 16.6292 27.5679 16.6144 27.6397C16.5997 27.7116 16.5701 27.7797 16.5277 27.8396C15.6217 29.0582 14.7193 30.2803 13.8204 31.506L15.2696 32.5657L16.4587 30.9762C16.7028 30.6477 16.6657 30.4993 16.3472 30.2609L15.9862 29.996C15.7208 29.8 15.758 29.4344 16.0446 29.0423C16.3313 28.6502 16.6604 28.5124 16.947 28.7456L17.4779 29.1377C18.2529 29.7152 18.2741 30.2397 17.6 31.151C16.3861 32.79 15.1811 34.4343 13.985 36.0838C13.2896 37.0428 12.7959 37.1435 12.0103 36.6136L11.4795 36.2163C11.1928 36.0096 11.2406 35.6864 11.5113 35.2838C11.782 34.8811 12.1059 34.7857 12.3713 34.9765L12.7375 35.2414C13.0613 35.4745 13.2259 35.448 13.4807 35.093L14.3937 33.8426L12.9446 32.7829C12.1837 33.8214 11.4282 34.8634 10.6779 35.909C10.6332 35.9666 10.577 36.0143 10.5129 36.0493C10.4488 36.0843 10.3782 36.1056 10.3055 36.1121C10.2327 36.1186 10.1594 36.11 10.0902 36.0869C10.0209 36.0638 9.95714 36.0267 9.90291 35.9778C9.83947 35.9453 9.78423 35.8989 9.74133 35.842C9.69842 35.7852 9.66897 35.7194 9.65518 35.6495C9.6414 35.5797 9.64363 35.5077 9.66171 35.4388C9.67979 35.3699 9.71325 35.3061 9.75958 35.252C10.5134 34.1923 11.2707 33.1467 12.0315 32.1153L11.1928 31.506C10.7682 32.0835 10.3488 32.6611 9.92945 33.2439C10.0157 33.5358 10.0708 33.8359 10.094 34.1393C10.1257 34.3556 10.0725 34.5758 9.94537 34.7539C9.83007 34.9067 9.66145 35.0107 9.47293 35.0453C9.39449 35.082 9.30744 35.0965 9.22131 35.0872C9.13518 35.0778 9.05328 35.045 8.98457 34.9923C8.90334 34.9296 8.83731 34.8493 8.79137 34.7576C8.74542 34.6659 8.72074 34.565 8.71916 34.4625C8.65706 33.7799 8.47748 33.1132 8.18832 32.4915C8.13226 32.3743 8.11 32.2438 8.12407 32.1146C8.13813 31.9855 8.18795 31.8628 8.26795 31.7603C8.3243 31.6802 8.38829 31.6057 8.45905 31.5378C8.55419 31.4409 8.67925 31.3788 8.81406 31.3615C8.94888 31.3442 9.08561 31.3727 9.20221 31.4424C9.26825 31.4935 9.31954 31.5612 9.35084 31.6385C9.37739 31.718 9.42516 31.8133 9.4517 31.8928C10.5611 30.3722 11.6706 28.8568 12.7959 27.3468C12.838 27.2901 12.8917 27.243 12.9535 27.2088C13.0153 27.1746 13.0837 27.1541 13.1542 27.1485C13.2247 27.143 13.2955 27.1527 13.3619 27.1768C13.4283 27.201 13.4887 27.2391 13.5391 27.2885C13.6022 27.3218 13.6573 27.3683 13.7007 27.4249C13.744 27.4815 13.7746 27.5468 13.7902 27.6163C13.8059 27.6858 13.8062 27.7578 13.7913 27.8275C13.7763 27.8971 13.7464 27.9627 13.7037 28.0197C13.1622 28.7473 12.619 29.482 12.074 30.2238L12.9074 30.8384C13.8098 29.6092 14.7175 28.3835 15.6306 27.1614H15.62ZM27.3407 35.4374C27.4603 35.2978 27.6293 35.2099 27.8125 35.1921C27.9956 35.1744 28.1785 35.2281 28.3227 35.342C28.3717 35.374 28.4118 35.4177 28.4395 35.4692C28.5814 35.6039 28.6702 35.7849 28.6897 35.9794C28.7092 36.1738 28.6581 36.3688 28.5457 36.5289C28.5246 36.5541 28.5051 36.5807 28.4873 36.6083C26.9952 38.295 25.2768 39.7678 23.3807 40.9848C23.2749 41.0611 23.1476 41.1021 23.0171 41.1021C22.8865 41.1021 22.7593 41.0611 22.6535 40.9848C22.5346 40.8914 22.4445 40.7666 22.3934 40.6245C22.3294 40.4979 22.3033 40.3556 22.3184 40.2146C22.3335 40.0737 22.389 39.94 22.4783 39.8298C22.5595 39.7208 22.6581 39.6259 22.7702 39.5489C24.4969 38.4216 26.0385 37.0348 27.3407 35.4374Z" fill="#111827"/>
<path id="Vector_2" d="M39.7249 25.556C39.8628 25.4998 40.012 25.4768 40.1604 25.4887C40.3089 25.5007 40.4524 25.5473 40.5795 25.6248C40.7087 25.6949 40.8099 25.8072 40.8662 25.9427C40.9243 26.0608 40.9432 26.1943 40.9203 26.3238C40.8974 26.4533 40.8338 26.5722 40.7387 26.6633C39.1728 28.1902 37.4321 29.5275 35.5525 30.6477L35.4251 30.706C35.2433 30.7861 35.0378 30.794 34.8503 30.7281C34.6629 30.6621 34.5078 30.5272 34.4166 30.351C34.375 30.3115 34.344 30.2624 34.3263 30.2079C34.2826 30.1217 34.2569 30.0275 34.2507 29.9311C34.2445 29.8347 34.2579 29.738 34.2901 29.6469C34.3224 29.5558 34.3728 29.4721 34.4383 29.401C34.5038 29.3299 34.5831 29.2727 34.6714 29.233C36.3983 28.3157 37.987 27.1599 39.3904 25.7997C39.4821 25.6944 39.5964 25.6111 39.7249 25.556ZM44.6297 4.32542C45.8825 3.82738 46.6575 4.04991 47.0662 5.08309C47.2467 5.53345 47.4272 5.98381 47.5971 6.43947C47.7457 6.81036 47.4538 7.12826 47.0026 7.3084C46.5513 7.48855 46.0895 7.46735 45.9409 7.09647L45.495 5.97851C45.3464 5.60763 45.1022 5.58114 44.6457 5.76128C39.5037 7.82764 34.3759 9.97171 29.2622 12.1935C28.8322 12.3789 28.657 12.5856 28.8269 12.9724L29.2887 14.032C29.4533 14.3976 29.172 14.7261 28.6995 14.9327C28.2271 15.1394 27.8449 15.1023 27.6803 14.7367C27.5158 14.3711 27.2928 13.8625 27.0964 13.4227C26.6505 12.4107 27.0327 11.7007 28.2271 11.1815C30.5733 10.1536 32.9285 9.1434 35.2924 8.15084C35.1863 7.90712 35.0854 7.65809 34.9792 7.41437C34.8041 7.0011 35.0748 6.68319 35.6162 6.45537C36.1577 6.22754 36.577 6.25933 36.7469 6.6726L37.0601 7.41437C39.5762 6.36529 42.0994 5.33564 44.6297 4.32542ZM30.4035 14.2758C30.271 14.3015 30.1338 14.2816 30.0142 14.2191C29.8946 14.1567 29.7999 14.0556 29.7455 13.9323C29.6912 13.809 29.6805 13.671 29.7152 13.5408C29.7498 13.4106 29.8278 13.2961 29.9363 13.2161C31.9287 12.3471 33.9282 11.4906 35.9347 10.6464C36.0658 10.623 36.2009 10.6443 36.3184 10.7067C36.4359 10.7691 36.529 10.8691 36.5829 10.9906C36.6367 11.1121 36.6481 11.2481 36.6153 11.3769C36.5825 11.5056 36.5073 11.6197 36.4019 11.7007L33.8433 12.7869L34.3369 13.9314L36.6195 12.9618C36.6855 12.9315 36.7572 12.916 36.8298 12.9163C36.9024 12.9166 36.974 12.9327 37.0397 12.9635C37.1054 12.9943 37.1636 13.039 37.2102 13.0945C37.2568 13.15 37.2907 13.215 37.3096 13.285C37.3457 13.3487 37.3682 13.4192 37.3757 13.492C37.3832 13.5648 37.3754 13.6384 37.353 13.7081C37.3305 13.7778 37.2939 13.8421 37.2453 13.8969C37.1967 13.9518 37.1373 13.996 37.0707 14.0267L34.7881 14.991L35.319 16.162C36.2532 15.6321 37.1397 15.1288 37.867 14.6678C37.9278 14.6246 37.9938 14.589 38.0634 14.5619C38.1195 14.5323 38.1811 14.5145 38.2443 14.5094C38.3076 14.5044 38.3712 14.5123 38.4313 14.5326C38.4914 14.5529 38.5467 14.5853 38.5939 14.6277C38.6411 14.67 38.6791 14.7216 38.7057 14.7791C38.7409 14.8224 38.7695 14.8706 38.7906 14.9222C38.9021 15.1818 38.7906 15.4202 38.488 15.6374C36.4762 16.9143 33.6097 18.5515 31.2316 19.749H31.1891C31.112 19.7945 31.0261 19.8231 30.937 19.8326C30.848 19.8422 30.7579 19.8326 30.6729 19.8045C30.5878 19.7764 30.5098 19.7304 30.4441 19.6696C30.3784 19.6089 30.3266 19.5347 30.292 19.4523V19.4046C30.2548 19.3331 30.2322 19.2549 30.2257 19.1746C30.2192 19.0943 30.2288 19.0135 30.254 18.937C30.2792 18.8605 30.3195 18.7898 30.3726 18.729C30.4256 18.6683 30.4902 18.6187 30.5627 18.5833C31.5766 18.1118 32.7232 17.5236 33.8857 16.9355C33.6999 16.4958 33.5088 16.056 33.3177 15.6162L30.8865 16.6759C30.8188 16.7025 30.7462 16.7149 30.6735 16.7124C30.6007 16.7098 30.5292 16.6924 30.4635 16.6611C30.3978 16.6297 30.3392 16.5853 30.2914 16.5304C30.2437 16.4755 30.2077 16.4114 30.1858 16.3421C30.1532 16.2793 30.1334 16.2107 30.1278 16.1401C30.1222 16.0696 30.1307 15.9987 30.153 15.9315C30.1753 15.8644 30.2108 15.8023 30.2574 15.7491C30.3041 15.6959 30.361 15.6525 30.4247 15.6215L32.8612 14.5619C32.6967 14.1804 32.5321 13.7989 32.3622 13.4174L30.4035 14.2758ZM37.4635 26.3189C36.2638 26.8488 35.5632 26.605 35.1013 25.5507C34.4643 24.0936 33.8326 22.6419 33.1956 21.1901C32.7232 20.1304 33.0895 19.4364 34.3529 18.8906C38.1642 17.2481 41.9933 15.6586 45.84 14.1221C47.2043 13.5658 47.8943 13.7989 48.3296 14.8957C48.9242 16.3615 49.5152 17.8327 50.1026 19.3092C50.5326 20.3689 50.1875 21.0471 48.9772 21.5398C45.1199 23.0799 41.282 24.6729 37.4635 26.3189ZM46.6734 15.5844C46.5142 15.1924 46.27 15.1606 45.8719 15.3248C42.3082 16.766 38.7694 18.2478 35.2553 19.7702C34.8784 19.9344 34.7244 20.1251 34.8943 20.5172C34.9739 20.6868 35.0482 20.8616 35.1226 21.0471C39.0189 19.3586 42.9399 17.7126 46.8858 16.109L46.6734 15.5844ZM47.3211 17.174C43.3823 18.7741 39.4594 20.413 35.5525 22.0908L35.9931 23.1081C39.8859 21.4268 43.7999 19.7913 47.7351 18.2018L47.3211 17.174ZM36.4549 24.1678L36.7151 24.7718C36.8849 25.1586 37.1185 25.1639 37.4901 24.9996C40.9829 23.4984 44.4917 22.0326 48.0164 20.602C48.4146 20.443 48.5791 20.2735 48.4199 19.8814C48.3349 19.6801 48.2553 19.4734 48.1704 19.2721C44.2493 20.8581 40.3442 22.49 36.4549 24.1678ZM47.3635 8.33099C47.4282 8.30257 47.4983 8.28835 47.569 8.2893C47.6397 8.29024 47.7093 8.30633 47.7732 8.33647C47.8372 8.36661 47.8938 8.4101 47.9395 8.464C47.9851 8.5179 48.0186 8.58095 48.0377 8.64889C48.0723 8.71369 48.093 8.78496 48.0985 8.85817C48.1041 8.93139 48.0943 9.00495 48.0698 9.0742C48.0454 9.14345 48.0068 9.20687 47.9565 9.26043C47.9061 9.314 47.8452 9.35654 47.7776 9.38536C46.362 9.94699 44.9465 10.5139 43.5309 11.0861C43.7592 11.616 43.9821 12.1882 44.2051 12.7445L46.0683 11.9869C46.4505 11.8385 46.4983 11.6901 46.3496 11.3193L46.1798 10.906C46.0577 10.5987 46.2806 10.3073 46.7106 10.1271C47.1406 9.94699 47.5015 10.0159 47.6342 10.3391C47.7139 10.5457 47.7935 10.747 47.8784 10.9537C48.2341 11.8491 47.974 12.3101 46.9229 12.7286C45.0296 13.4881 43.1416 14.2581 41.259 15.0387C40.1655 15.4891 39.6665 15.3354 39.3108 14.4453L39.056 13.8148C38.918 13.4916 39.1463 13.2161 39.5868 13.0412C40.0274 12.8664 40.3566 12.9247 40.484 13.2267L40.6538 13.6399C40.8078 14.0108 40.967 14.0744 41.3704 13.9102L42.7984 13.3167C42.5754 12.7869 42.3472 12.2147 42.1189 11.6637C40.9298 12.1511 39.7408 12.6439 38.5517 13.1419C38.4829 13.1682 38.4094 13.18 38.3358 13.1764C38.2622 13.1728 38.1901 13.154 38.1242 13.1211C38.0583 13.0882 38 13.042 37.9529 12.9854C37.9059 12.9287 37.8712 12.863 37.851 12.7922C37.815 12.7307 37.7933 12.6618 37.7875 12.5908C37.7816 12.5198 37.7918 12.4483 37.8173 12.3817C37.8427 12.3152 37.8828 12.2551 37.9346 12.206C37.9864 12.157 38.0485 12.1201 38.1164 12.0981C39.309 11.6001 40.507 11.1073 41.7102 10.6199C41.5775 10.2967 41.4501 9.97878 41.3174 9.66088L39.332 10.4768C39.2524 10.7718 39.1421 11.0577 39.0029 11.3299C38.9147 11.5288 38.7531 11.6863 38.5517 11.7696C38.381 11.8359 38.1916 11.8359 38.0209 11.7696C37.9346 11.7625 37.8522 11.7307 37.7834 11.6781C37.7147 11.6255 37.6626 11.5543 37.6334 11.4729C37.5954 11.3799 37.5795 11.2794 37.5868 11.1792C37.5942 11.079 37.6247 10.9819 37.6759 10.8954C37.9817 10.2817 38.1809 9.62058 38.2651 8.9403C38.2868 8.81854 38.3413 8.70496 38.4226 8.61165C38.5039 8.51834 38.6091 8.44881 38.7269 8.41046C38.8158 8.36703 38.9106 8.33669 39.0082 8.32039C39.139 8.28709 39.2772 8.29878 39.4005 8.35359C39.5238 8.40839 39.625 8.5031 39.6877 8.6224C39.7123 8.70179 39.7123 8.78673 39.6877 8.86612C39.6877 8.95089 39.6877 9.05686 39.6452 9.14164C41.3793 8.43519 43.1222 7.72874 44.8739 7.02229C44.9395 6.99596 45.01 6.984 45.0806 6.98719C45.1512 6.99039 45.2202 7.00869 45.2831 7.04083C45.3461 7.07298 45.4013 7.11824 45.4452 7.17354C45.4891 7.22884 45.5205 7.2929 45.5375 7.36139C45.573 7.423 45.595 7.49151 45.6018 7.5623C45.6087 7.63309 45.6002 7.70452 45.5771 7.77179C45.554 7.83905 45.5167 7.90059 45.4677 7.95227C45.4187 8.00394 45.3593 8.04455 45.2933 8.07137L42.74 9.09925C42.8727 9.42245 43.0001 9.74035 43.1328 10.0583L47.3635 8.33099ZM52.9903 21.5027C53.1649 21.4453 53.3552 21.4586 53.52 21.5399C53.6849 21.6212 53.8111 21.7639 53.8715 21.9372C53.8986 21.9878 53.9131 22.0441 53.914 22.1014C53.9679 22.2941 53.9491 22.4999 53.861 22.6797C53.7729 22.8594 53.6218 23.0006 53.4362 23.0763L53.346 23.1081C51.1915 23.7632 48.957 24.1197 46.7053 24.1678C46.5778 24.179 46.45 24.151 46.339 24.0876C46.2279 24.0241 46.139 23.9282 46.0842 23.8128C46.0345 23.668 46.0235 23.5128 46.0524 23.3624C46.0665 23.2223 46.1197 23.0888 46.206 22.9774C46.2924 22.8659 46.4083 22.7808 46.5407 22.7319C46.6685 22.6842 46.8027 22.6556 46.9389 22.6472C49.0031 22.5797 51.0444 22.1936 52.9903 21.5027Z" fill="#111827"/>
<path id="Vector_3" d="M67.1899 11.0437C67.9225 10.8636 68.6391 10.6623 69.2336 10.4662C69.3474 10.4425 69.4649 10.4425 69.5787 10.4662C69.7204 10.4899 69.8514 10.5564 69.954 10.6569C70.0565 10.7574 70.1256 10.8869 70.152 11.0279C70.1915 11.1764 70.2005 11.3314 70.1785 11.4835C70.1584 11.6169 70.096 11.7403 70.0005 11.8357C69.905 11.931 69.7813 11.9933 69.6477 12.0133C68.7531 12.3358 67.8424 12.6117 66.9192 12.8399C66.5653 15.2453 66.2114 17.6526 65.8575 20.0616C65.6558 21.4338 64.8383 21.9531 63.2034 21.7199C62.5488 21.6385 61.9058 21.482 61.2871 21.2537C61.1238 21.1879 60.9887 21.0671 60.9053 20.9122C60.8219 20.7574 60.7954 20.5782 60.8306 20.406C60.84 20.3278 60.8596 20.2512 60.889 20.1781C61.0482 19.7225 61.3561 19.5794 61.6374 19.6165C61.7015 19.6223 61.7643 19.6384 61.8232 19.6642C62.2185 19.8164 62.6299 19.9231 63.0494 19.9821C63.8457 20.0986 64.0315 19.9821 64.1111 19.3304C64.3978 17.3311 64.6862 15.3354 64.9764 13.3432C64.1005 13.5446 63.2724 13.7406 62.5717 13.8731C62.4854 13.8845 62.3979 13.8845 62.3116 13.8731C62.1311 13.8496 61.9646 13.7635 61.8413 13.6298C61.7181 13.4961 61.6459 13.3234 61.6374 13.1419C61.6171 13.0138 61.6171 12.8832 61.6374 12.7551C61.6506 12.6051 61.7145 12.4641 61.8188 12.3553C61.923 12.2464 62.0612 12.1763 62.2107 12.1564C63.0866 11.9922 64.1377 11.759 65.2205 11.5365L65.9531 6.48185L63.2299 6.09507C62.7947 6.03149 62.6036 5.65001 62.6673 5.18375C62.731 4.7175 63.0229 4.3996 63.4582 4.46318L66.192 4.84996C66.3724 3.58365 66.5582 2.31734 66.7228 1.05103C66.7918 0.611266 67.2112 0.431122 67.7845 0.521194C68.3578 0.611266 68.6763 0.886781 68.6072 1.33184C68.4215 2.59815 68.2304 3.86446 68.0446 5.12547L70.2422 5.45927C70.6722 5.52285 70.8633 5.90963 70.773 6.37589C70.6828 6.84214 70.4068 7.15475 69.9768 7.08587L67.7845 6.75737L67.1899 11.0437ZM76.6812 10.0371C76.6493 10.6782 76.6175 11.3193 76.5909 11.9074C76.5184 13.2481 76.5717 14.5927 76.7502 15.9235C77.8994 14.9347 78.9339 13.8204 79.8343 12.6015C79.917 12.4798 80.0331 12.3846 80.1687 12.3273C80.3043 12.2699 80.4536 12.2529 80.5987 12.2783C80.7653 12.3138 80.9204 12.3903 81.0499 12.5008C81.1808 12.5854 81.287 12.7029 81.3578 12.8415C81.4286 12.9801 81.4616 13.1349 81.4533 13.2903C81.4163 13.4529 81.3397 13.6039 81.2304 13.73C80.0292 15.2557 78.6459 16.6293 77.1112 17.8204C77.4278 19.3799 78.1019 20.8452 79.0805 22.1014C79.1991 22.2987 79.3892 22.4429 79.6114 22.5041C79.6884 22.511 79.7661 22.4998 79.838 22.4713C79.9099 22.4427 79.9741 22.3977 80.0254 22.3399C80.605 21.7072 81.0222 20.9436 81.241 20.1145C81.2607 20.0352 81.2962 19.9606 81.3453 19.8952C81.3945 19.8299 81.4563 19.775 81.5271 19.734C81.598 19.693 81.6763 19.6666 81.7576 19.6564C81.8388 19.6462 81.9213 19.6525 82.0001 19.6748C82.056 19.6827 82.1099 19.7006 82.1593 19.7278C82.6902 19.8708 82.876 20.1887 82.807 20.5649C82.8095 20.6019 82.8095 20.6391 82.807 20.6762C82.4832 21.8153 81.6444 23.3624 80.9438 23.9294C80.7457 24.1305 80.5036 24.2831 80.2365 24.375C79.9694 24.467 79.6845 24.4958 79.4043 24.4592C78.7785 24.3011 78.2202 23.9463 77.8118 23.4472C76.9519 22.5836 76.1079 21.0312 75.5133 18.9489C73.3978 20.3421 71.0864 21.4135 68.655 22.1279C68.5217 22.1721 68.3795 22.183 68.241 22.1597C68.0075 22.093 67.8061 21.944 67.6744 21.7403C67.5426 21.5367 67.4893 21.2922 67.5243 21.0524C67.5439 20.8946 67.613 20.7471 67.7217 20.631C67.8304 20.5149 67.9732 20.4361 68.1295 20.406C70.645 19.7557 73.0235 18.6611 75.1524 17.174C74.8419 15.4634 74.728 13.7232 74.8127 11.9869C74.8127 11.3246 74.8604 10.6358 74.9082 9.9046C73.5227 9.82512 72.132 9.74565 70.7465 9.67677H70.6987C70.2953 9.61848 70.1307 9.2582 70.1679 8.82903V8.76015C70.2316 8.32039 70.4758 8.02368 70.8898 8.06077C72.2806 8.13494 73.6714 8.20912 75.0621 8.29389C75.1949 6.55073 75.4337 4.61153 75.7841 2.46569C75.8531 2.04712 76.2565 1.87228 76.7927 1.93586C77.3288 1.99944 77.7004 2.32264 77.6314 2.74121C77.2916 4.78108 77.0262 6.67259 76.867 8.38926C79.1778 8.53762 81.487 8.70363 83.7943 8.88731H83.8686C84.2508 8.95619 84.4419 9.27939 84.3995 9.72975V9.81982C84.3251 10.2384 84.1022 10.5298 83.6881 10.5033C81.3348 10.3373 78.9991 10.1819 76.6812 10.0371ZM82.86 6.58252C82.9285 6.72778 82.9525 6.88997 82.9291 7.04878C82.9055 7.18282 82.8517 7.30974 82.7717 7.41991C82.6917 7.53008 82.5876 7.6206 82.4672 7.68458C82.2759 7.7701 82.0642 7.79951 81.8568 7.76936C81.7294 7.74774 81.6081 7.69921 81.5009 7.62703C81.3938 7.55484 81.3034 7.46066 81.2357 7.35078C80.6806 6.31065 80.0564 5.30878 79.3672 4.35191C79.3044 4.27179 79.2589 4.17965 79.2333 4.08122C79.2077 3.98278 79.2027 3.88014 79.2186 3.77969C79.2376 3.67087 79.2797 3.56735 79.3419 3.476C79.4042 3.38466 79.4851 3.30756 79.5795 3.24985C79.7931 3.13848 80.0384 3.10298 80.2749 3.14918C80.4789 3.18256 80.6659 3.28331 80.8057 3.43529C81.5944 4.41117 82.2826 5.46378 82.86 6.57722V6.58252Z" fill="#111827"/>
<path id="Vector_4" d="M101.471 7.38787C101.468 7.53498 101.428 7.67895 101.354 7.80645C99.5099 11.3473 96.8367 14.3917 93.5618 16.6812C93.348 16.8346 93.0925 16.9196 92.8293 16.9249C92.6864 16.919 92.5465 16.8823 92.4191 16.8174C92.2918 16.7524 92.18 16.6608 92.0914 16.5487C91.9272 16.3675 91.838 16.1308 91.8419 15.8865C91.8527 15.7204 91.9044 15.5595 91.9923 15.4181C92.0803 15.2767 92.2018 15.1591 92.3462 15.0758C95.4312 13.1237 97.9007 10.341 99.47 7.04878C99.5455 6.87585 99.6741 6.73135 99.8373 6.63612C100 6.54089 100.19 6.49986 100.378 6.51894C100.56 6.52005 100.741 6.55789 100.909 6.63021C101.069 6.68416 101.208 6.78565 101.309 6.92108C101.409 7.0565 101.466 7.21938 101.471 7.38787ZM105.5 19.3304C105.385 19.1768 105.318 18.9923 105.309 18.8006C105.325 18.6475 105.378 18.5006 105.464 18.373C105.55 18.2455 105.666 18.1411 105.803 18.0694C105.961 17.9699 106.147 17.9218 106.334 17.9316C106.483 17.9467 106.628 17.9909 106.76 18.0618C106.892 18.1327 107.009 18.2289 107.103 18.3449C108.942 20.8448 110.53 23.5192 111.844 26.3295C111.93 26.4922 111.969 26.6758 111.955 26.8594C111.935 27.0379 111.864 27.207 111.75 27.3461C111.636 27.4852 111.484 27.5885 111.313 27.6435C111.164 27.7226 110.998 27.761 110.83 27.7548C110.643 27.7324 110.466 27.6587 110.319 27.5417C110.172 27.4247 110.06 27.2692 109.996 27.0925C109.747 26.4673 109.465 25.858 109.174 25.2752C103.642 25.8368 98.3711 26.0222 93.583 26.0593H93.5353C93.0044 26.0593 92.6912 25.6566 92.6859 25.0473V24.952C92.6797 24.8385 92.6976 24.7251 92.7385 24.6191C92.7793 24.5131 92.8421 24.4169 92.9228 24.3368C93.0036 24.2568 93.1003 24.1947 93.2068 24.1546C93.3132 24.1145 93.427 24.0973 93.5406 24.1042C94.305 24.1042 95.0853 24.1042 95.8709 24.1042C98.0404 20.7053 99.8868 17.1116 101.386 13.3697C101.447 13.1772 101.571 13.0109 101.739 12.8983C101.907 12.7857 102.108 12.7333 102.31 12.7498C102.425 12.7626 102.538 12.7839 102.65 12.8134C103.18 12.9565 103.456 13.2956 103.435 13.6982C103.429 13.8106 103.4 13.9205 103.35 14.0214C101.808 17.5014 100.016 20.8658 97.9889 24.0883H99.2045C100.563 24.0459 101.922 24.03 103.287 23.9506C104.959 23.887 106.631 23.7598 108.287 23.6115C107.449 22.1291 106.518 20.701 105.5 19.3357V19.3304ZM106.615 6.75207C106.806 6.75614 106.991 6.81958 107.144 6.93355C107.297 7.04751 107.411 7.20633 107.47 7.38787C108.847 10.8102 111.138 13.79 114.094 16.003C114.215 16.0923 114.311 16.2104 114.374 16.3465C114.437 16.4826 114.465 16.6323 114.455 16.7819C114.425 17.0373 114.317 17.2774 114.147 17.4707C114.055 17.5854 113.936 17.6767 113.802 17.7375C113.667 17.7982 113.52 17.8266 113.372 17.8204C113.114 17.802 112.867 17.7039 112.666 17.5395C109.563 14.9751 107.122 11.7044 105.548 8.00248C105.486 7.87005 105.459 7.72433 105.468 7.57862C105.475 7.40533 105.541 7.23954 105.655 7.10856C105.769 6.97758 105.924 6.88922 106.095 6.85804C106.259 6.78906 106.436 6.75478 106.615 6.75737V6.75207Z" fill="#111827"/>
<path id="Vector_5" d="M128.592 9.12044C129.027 9.08865 129.298 9.39595 129.335 9.8675C129.372 10.3391 129.16 10.7311 128.719 10.7629L126.389 10.959L126.755 15.2242C127.286 14.9433 127.774 14.6678 128.236 14.3923C128.374 14.3107 128.528 14.2584 128.687 14.2387C128.824 14.2342 128.96 14.2726 129.074 14.3486C129.188 14.4247 129.276 14.5344 129.324 14.6625C129.382 14.7863 129.417 14.9189 129.43 15.0546C129.439 15.1999 129.406 15.3446 129.334 15.4715C129.263 15.5983 129.156 15.7019 129.027 15.7699C128.358 16.1779 127.641 16.5911 126.904 16.9832C127.102 19.3427 127.3 21.697 127.498 24.0459C127.636 25.6672 127.074 26.2765 125.184 26.4461C124.615 26.5044 124.041 26.4938 123.474 26.4143C123.288 26.4052 123.111 26.3268 122.98 26.1944C122.848 26.0621 122.771 25.8853 122.763 25.699C122.752 25.6128 122.752 25.5256 122.763 25.4394C122.767 25.2641 122.835 25.0964 122.955 24.9677C123.074 24.839 123.236 24.758 123.411 24.74C123.49 24.7294 123.57 24.7294 123.65 24.74C124.061 24.7954 124.478 24.806 124.892 24.7718C125.651 24.7029 125.757 24.5758 125.699 23.8923C125.522 21.886 125.345 19.8779 125.168 17.868C124.382 18.2654 123.575 18.6204 122.827 18.9277C122.717 18.983 122.599 19.0172 122.477 19.0284C122.116 19.0655 121.834 18.8535 121.67 18.4191C121.633 18.314 121.606 18.2058 121.59 18.0959C121.573 17.9271 121.618 17.7579 121.715 17.619C121.812 17.48 121.956 17.3804 122.121 17.3382C123.055 16.9673 124.058 16.5487 125.035 16.0825C124.886 14.4188 124.738 12.7498 124.595 11.0861L121.781 11.3404C121.341 11.3828 121.064 11.0543 121.022 10.5828C120.98 10.1112 121.187 9.74034 121.627 9.69796L124.446 9.44363L124.111 5.62352C124.074 5.17845 124.366 4.86585 124.955 4.81816C125.545 4.77048 125.911 5.0195 125.948 5.46456C126.06 6.74147 126.166 8.01308 126.272 9.28998L128.592 9.12044ZM133.369 8.5906C132.456 8.84492 131.522 9.12044 130.651 9.28998C130.581 9.31302 130.508 9.32552 130.434 9.32707C130.229 9.35296 130.023 9.29823 129.858 9.17455C129.694 9.05086 129.584 8.86797 129.552 8.66478C129.523 8.60731 129.509 8.54367 129.51 8.47933C129.486 8.28639 129.533 8.09122 129.642 7.93032C129.752 7.76942 129.916 7.65381 130.105 7.6051C133.504 6.84277 136.798 5.67028 139.914 4.11348C140.066 4.03332 140.232 3.98296 140.403 3.96513C140.57 3.95525 140.736 3.99472 140.88 4.0786C141.024 4.16248 141.141 4.28704 141.215 4.43668C141.3 4.56901 141.351 4.71997 141.363 4.87645C141.366 5.06278 141.311 5.24539 141.206 5.39912C141.1 5.55285 140.949 5.67013 140.774 5.73478C138.969 6.64422 137.095 7.40958 135.169 8.02367C135.301 9.93109 135.429 11.8438 135.561 13.7512C137.908 13.2708 140.258 12.8046 142.611 12.3524H142.733C142.918 12.3562 143.095 12.4299 143.228 12.5587C143.361 12.6875 143.44 12.8618 143.45 13.0465C143.45 13.1154 143.45 13.1631 143.45 13.2108C143.45 13.6346 143.322 13.9949 142.919 14.0638C140.488 14.5265 138.063 15.0034 135.646 15.4944L136.124 22.4723C136.183 23.3412 136.48 23.5055 138.805 23.3571C140.87 23.23 141.422 22.9651 141.645 22.2975C141.821 21.4011 141.882 20.4859 141.825 19.5741C141.814 19.4691 141.826 19.3629 141.861 19.263C141.895 19.1631 141.951 19.0719 142.024 18.9957C142.097 18.9195 142.186 18.8602 142.285 18.8219C142.384 18.7837 142.489 18.7673 142.595 18.7741H142.717C143.296 18.7741 143.619 19.0549 143.646 19.5953C143.647 19.6112 143.647 19.6271 143.646 19.643C143.746 20.9171 143.597 22.1985 143.205 23.4154C142.807 24.4062 141.91 24.8725 139.023 25.0526C135.004 25.3122 134.473 24.8672 134.335 22.9333C134.165 20.5737 133.997 18.2177 133.831 15.8653C132.769 16.0878 131.699 16.3156 130.619 16.5487H130.545C130.163 16.5805 129.871 16.2467 129.786 15.8282C129.763 15.7691 129.75 15.7063 129.749 15.6427C129.717 15.4675 129.755 15.2868 129.854 15.1386C129.953 14.9904 130.105 14.8862 130.28 14.848L133.714 14.1221L133.369 8.5906Z" fill="#111827"/>
<path id="Vector_6" d="M108.734 87.3144C113.991 64.7828 99.9534 42.2635 77.3795 37.016C54.8056 31.7686 32.244 45.7802 26.9867 68.3118L17.4676 109.109C12.2104 131.641 26.2483 154.16 48.8222 159.407C71.3961 164.655 93.9577 150.643 99.2149 128.111L108.734 87.3144Z" fill="#EA580C"/>
<path id="Vector_7" d="M63.5435 105.402C83.1478 105.402 99.0402 91.3022 99.0402 73.9088C99.0402 56.5155 83.1478 42.4154 63.5435 42.4154C43.9393 42.4154 28.0469 56.5155 28.0469 73.9088C28.0469 91.3022 43.9393 105.402 63.5435 105.402Z" fill="white"/>
<path id="Vector_8" d="M59.0046 75.0162C58.8072 74.6711 58.5166 74.3884 58.1659 74.2002C58.2349 74.0837 58.2986 73.9671 58.3623 73.84C58.9993 72.4889 59.0152 70.4808 58.3942 69.4582C58.3623 69.4105 55.1402 64.2287 53.0859 63.9744C52.555 63.9108 51.0103 63.9426 49.2426 64.0062C50.5113 62.6657 52.4276 60.6788 53.3566 59.7675C54.1157 59.0204 54.9013 58.3105 55.6604 57.6482C57.927 55.6136 59.7159 54.0029 59.7849 52.2915C59.7948 51.9509 59.7344 51.612 59.6075 51.2957C59.4805 50.9794 59.2898 50.6926 59.0471 50.453C57.4918 48.8052 54.5403 50.755 51.6155 52.7949L53.5371 50.3046C53.7388 50.0503 53.9405 49.8066 54.1316 49.5787C55.395 48.0369 56.308 46.9296 56.1222 45.7533C56.051 45.4369 55.9121 45.1397 55.7152 44.8818C55.5182 44.6239 55.2677 44.4115 54.9809 44.2592C52.709 42.8392 51.0793 44.2274 49.3594 45.7056C49.0144 45.9971 48.6534 46.3044 48.2659 46.617C47.6979 47.0726 46.5566 48.1058 45.1606 49.4092C45.6224 48.2859 45.6914 47.5283 45.4844 46.8872C45.3206 46.5152 45.0806 46.1816 44.7798 45.9078C44.479 45.634 44.1241 45.4262 43.7379 45.2977C41.9703 44.5029 41.0307 46.4315 40.0221 48.4767C39.6346 49.2661 39.194 50.1563 38.6685 51.0358C37.9147 52.3074 36.9274 54.2148 35.8763 56.1964C35.096 57.6958 34.2838 59.2483 33.5672 60.5411C33.5354 60.5993 30.5786 66.56 29.1826 69.8556C28.5456 71.3656 27.8502 74.7884 27.1866 78.0945C26.7301 80.3305 26.3055 82.4392 26.0029 83.3611C25.9714 83.4547 25.9587 83.5535 25.9657 83.652C25.9727 83.7505 25.9992 83.8466 26.0436 83.9347C26.0881 84.0229 26.1495 84.1015 26.2246 84.1658C26.2996 84.2301 26.3866 84.279 26.4806 84.3095C26.67 84.3701 26.8757 84.3541 27.0534 84.2649C27.2311 84.1758 27.3666 84.0206 27.4308 83.8327C27.7652 82.8313 28.1793 80.7755 28.6623 78.3912C29.2834 75.3076 29.9894 71.8107 30.5733 70.4437C31.842 67.4448 34.4431 62.1677 34.8624 61.3252C35.9878 60.2285 47.0715 49.4675 49.1949 47.7455C49.5983 47.4223 49.9752 47.1044 50.3255 46.8024C52.1144 45.2712 52.8895 44.6831 54.1741 45.4884C54.3652 45.6103 54.5987 45.7904 54.6306 45.9759C54.7102 46.4739 53.8237 47.5654 52.9638 48.625C52.7674 48.8582 52.5656 49.1072 52.3586 49.3615C50.7024 51.4226 47.8996 54.9672 47.4378 55.5447C44.4386 57.6111 40.2238 60.7106 38.9445 61.712C38.8395 61.7968 38.7593 61.9081 38.7121 62.0344C38.665 62.1607 38.6527 62.2974 38.6766 62.43C38.7005 62.5627 38.7596 62.6865 38.8478 62.7885C38.936 62.8906 39.0501 62.9671 39.1781 63.0101C39.2972 63.0486 39.4239 63.0572 39.5471 63.035C39.6703 63.0128 39.786 62.9606 39.8841 62.8829C41.397 61.6749 47.2839 57.3779 50.007 55.6189C50.66 55.2003 51.3447 54.7235 52.0667 54.2148C53.9777 52.8743 57.1786 50.6331 57.9058 51.4067C58.0108 51.5018 58.0944 51.618 58.1512 51.7477C58.2079 51.8773 58.2364 52.0176 58.2349 52.1591C58.1925 53.2187 56.4513 54.8082 54.6093 56.4613C53.8343 57.1607 53.0169 57.8813 52.2525 58.6548C50.9201 59.9688 47.8784 63.1902 47.045 64.0751C44.9217 64.1704 42.9735 64.2764 42.5436 64.3029C42.3531 64.3256 42.1785 64.4198 42.0552 64.5665C41.9319 64.7132 41.8694 64.9013 41.8802 65.0925C41.891 65.2836 41.9744 65.4634 42.1135 65.5953C42.2525 65.7272 42.4367 65.8013 42.6285 65.8023C44.0405 65.7229 45.7657 65.6328 47.406 65.5639C49.9593 65.4526 52.3002 65.3785 52.8576 65.4473C53.5955 65.5321 55.8356 68.2078 57.0512 70.2159C57.3803 70.7457 57.4015 72.2028 56.945 73.1777C56.8842 73.3528 56.785 73.5122 56.6545 73.6442C56.5241 73.7762 56.3658 73.8775 56.1912 73.9406C55.8843 73.5474 55.6292 73.1165 55.4321 72.6584C55.1994 72.1264 54.9054 71.6232 54.5563 71.159C54.4395 71.0265 54.3174 70.8782 54.19 70.7192C53.0381 69.3204 52.279 68.4833 51.435 68.5999L50.9838 68.674C50.007 68.8277 47.9793 69.1509 46.2063 69.4953C45.8613 69.5642 45.0491 69.8768 44.996 71.302C44.9429 72.8598 46.0046 76.4626 47.3317 76.9024H47.3847C48.4942 77.2044 51.5146 77.0878 53.7229 76.2295C54.5642 75.8731 55.4391 75.6016 56.3345 75.4189H56.4036C57.0512 75.3288 57.5024 75.4189 57.72 75.7633C57.759 75.8527 57.7792 75.9492 57.7792 76.0467C57.7792 76.1443 57.759 76.2408 57.72 76.3302C57.1483 77.4664 56.1654 78.3433 54.9703 78.7833C54.3811 78.9741 52.9001 79.382 51.1855 79.843C47.0185 81.0351 43.7645 81.9306 42.8939 82.3544C41.8323 82.8843 41.0201 84.7758 40.1389 87.017C40.0062 87.3614 39.8841 87.6634 39.7886 87.8912C39.7491 87.9816 39.728 88.0789 39.7264 88.1775C39.7248 88.2761 39.7428 88.374 39.7793 88.4656C39.8159 88.5572 39.8702 88.6407 39.9392 88.7113C40.0082 88.7818 40.0905 88.8381 40.1814 88.8767H40.2451C40.4236 88.936 40.618 88.9265 40.7899 88.85C40.9618 88.7735 41.0988 88.6356 41.174 88.4634C41.2749 88.225 41.397 87.9071 41.5403 87.5468C41.9225 86.5719 42.9364 83.9863 43.5575 83.6843C44.3643 83.2869 48.526 82.1478 51.5624 81.3159C53.2929 80.8444 54.7898 80.4311 55.4109 80.2563C56.2228 79.9709 56.9697 79.5269 57.6077 78.9501C58.2457 78.3734 58.7621 77.6754 59.1267 76.8971C59.26 76.5989 59.3203 76.2733 59.3028 75.9472C59.2853 75.6211 59.1903 75.3038 59.0259 75.0215L59.0046 75.0162ZM39.969 51.82C40.4999 50.8874 40.9776 49.9655 41.3757 49.1708C42.018 47.8674 42.6922 46.5216 43.1116 46.7123C43.7008 46.972 43.9874 47.1786 44.0617 47.3958C44.2635 47.968 43.5309 49.4463 43.2602 49.9284C42.7294 50.9404 42.2622 51.963 42.0924 52.318C40.3884 53.9393 38.6154 55.6454 37.145 57.0865C37.1666 57.0355 37.1914 56.986 37.2193 56.9382C38.2545 54.9566 39.2312 53.081 39.969 51.8517V51.82ZM53.1761 74.8784C51.4772 75.4868 49.6626 75.7041 47.8678 75.5142C47.0928 74.8731 46.2753 71.6199 46.5885 70.9947C48.3455 70.6556 50.3043 70.343 51.2757 70.1894L51.6208 70.1364C52.1613 70.6026 52.6506 71.1247 53.0806 71.6941L53.4574 72.1498C53.7232 72.5207 53.9492 72.9185 54.1316 73.3366C54.3015 73.6757 54.4713 74.0254 54.6624 74.3433C54.1316 74.5128 53.6432 74.7036 53.1973 74.8731L53.1761 74.8784Z" fill="#111827"/>
<path id="Vector_9" d="M50.363 74.3433C51.1956 74.3433 51.8706 73.6696 51.8706 72.8386C51.8706 72.0075 51.1956 71.3338 50.363 71.3338C49.5304 71.3338 48.8555 72.0075 48.8555 72.8386C48.8555 73.6696 49.5304 74.3433 50.363 74.3433Z" fill="#111827"/>
<path id="Vector_10" d="M79.2556 78.7568C80.0882 78.7568 80.7632 78.0831 80.7632 77.2521C80.7632 76.4211 80.0882 75.7474 79.2556 75.7474C78.423 75.7474 77.748 76.4211 77.748 77.2521C77.748 78.0831 78.423 78.7568 79.2556 78.7568Z" fill="#111827"/>
<path id="Vector_11" d="M65.598 106.997C63.4355 106.996 61.2779 106.792 59.1537 106.388C52.4471 105.133 46.2724 101.897 41.4293 97.0998C41.355 97.026 41.2961 96.9384 41.2558 96.8419C41.2155 96.7454 41.1946 96.6419 41.1943 96.5374C41.1941 96.4328 41.2145 96.3292 41.2543 96.2326C41.2942 96.1359 41.3527 96.048 41.4266 95.9739C41.5005 95.8998 41.5883 95.8409 41.685 95.8007C41.7817 95.7604 41.8853 95.7396 41.9901 95.7394C42.0948 95.7391 42.1986 95.7595 42.2955 95.7992C42.3923 95.839 42.4804 95.8975 42.5546 95.9712C46.7621 100.131 52.0237 103.07 57.7762 104.474C63.5288 105.879 69.5556 105.695 75.2115 103.942C80.8674 102.19 85.9393 98.9357 89.8843 94.5272C93.8294 90.1187 96.4989 84.7223 97.6071 78.9158C100.792 62.1359 89.6181 47.4011 71.0284 43.8883C66.7704 43.0543 62.4014 42.9486 58.108 43.5757C57.8968 43.6073 57.6817 43.5539 57.51 43.4272C57.3382 43.3005 57.224 43.1109 57.1923 42.9002C57.1606 42.6894 57.2141 42.4747 57.3411 42.3033C57.468 42.1319 57.6579 42.0178 57.8691 41.9862C62.3408 41.336 66.8905 41.4453 71.3257 42.3094C90.8178 46.0182 102.533 61.5107 99.173 79.1966C97.6833 87.0018 93.5174 94.0458 87.3906 99.1189C81.2638 104.192 73.5585 106.977 65.598 106.997Z" fill="#111827"/>
<path id="Vector_12" d="M65.7627 90.5722C65.7627 92.3736 63.6765 94.3658 61.0967 94.3658C58.5168 94.3658 56.4307 92.3736 56.4307 90.5722C56.4307 88.7707 58.5168 87.8435 61.0967 87.8435C63.6765 87.8435 65.7627 88.7602 65.7627 90.5722Z" fill="#111827"/>
<path id="Vector_13" d="M74.0482 56.9806C69.6742 56.9806 66.1123 53.8704 66.1123 50.0503C66.1123 46.2302 69.6742 43.12 74.0482 43.12C74.2594 43.12 74.4619 43.2038 74.6113 43.3528C74.7606 43.5019 74.8445 43.704 74.8445 43.9148C74.8445 44.1256 74.7606 44.3277 74.6113 44.4768C74.4619 44.6258 74.2594 44.7095 74.0482 44.7095C70.55 44.7095 67.7207 47.1256 67.7207 50.0503C67.7207 52.975 70.566 55.391 74.0641 55.391C75.9804 55.391 77.4933 54.8241 78.1144 53.8651C78.2567 53.6647 78.3438 53.4306 78.3671 53.1861C78.3904 52.9416 78.349 52.6952 78.2471 52.4716C77.764 51.412 76.1238 50.8186 73.7987 50.8821C73.5876 50.8885 73.3825 50.8108 73.2287 50.6662C73.0749 50.5216 72.9849 50.322 72.9786 50.1112C72.9723 49.9004 73.0501 49.6958 73.1949 49.5423C73.3398 49.3888 73.5398 49.299 73.751 49.2926C76.8138 49.192 78.9319 50.0927 79.7016 51.8253C79.9107 52.2905 79.9976 52.8012 79.9539 53.3093C79.9103 53.8173 79.7375 54.3059 79.4521 54.7288C78.5019 56.1593 76.5431 56.9806 74.0482 56.9806Z" fill="#111827"/>
<path id="Vector_14" d="M55.8888 157.363C49.4539 157.347 43.1052 155.885 37.3141 153.084C31.523 150.284 26.4382 146.218 22.4371 141.187C18.4361 136.157 15.6215 130.292 14.2024 124.027C12.7833 117.762 12.7961 111.259 14.2398 105L23.7523 64.2022C26.3237 53.1762 33.1781 43.6214 42.8076 37.6397C52.4371 31.658 64.0529 29.7394 75.0996 32.3061C86.1463 34.8727 95.719 41.7143 101.712 51.3257C107.705 60.9371 109.627 72.5311 107.056 83.5571L97.5378 124.355C95.3369 133.736 90.0262 142.1 82.4666 148.091C74.907 154.082 65.5417 157.35 55.8888 157.363ZM65.4013 32.7776C56.1068 32.7909 47.0894 35.938 39.8118 41.7085C32.5341 47.4789 27.4231 55.5342 25.3076 64.5678L15.7898 105.365C13.3492 115.981 15.2174 127.13 20.9863 136.376C26.7552 145.622 35.9558 152.213 46.578 154.709C51.8457 155.932 57.3033 156.108 62.639 155.226C67.9747 154.343 73.084 152.42 77.6749 149.567C82.2658 146.713 86.2484 142.984 89.3951 138.594C92.5419 134.203 94.7911 129.237 96.0143 123.978L105.532 83.181C106.934 77.1531 106.955 70.887 105.593 64.85C104.231 58.8129 101.522 53.1604 97.6669 48.3139C93.8119 43.4674 88.9107 39.5519 83.3287 36.8591C77.7466 34.1663 71.6276 32.7657 65.4278 32.7617L65.4013 32.7776Z" fill="#111827"/>
<path id="Vector_15" d="M15.8107 129.06L15.6621 127.47C35.8337 125.584 64.2597 121.303 85.0045 111.612C97.3994 105.821 101.2 100.777 101.237 100.729L102.522 101.662C102.368 101.879 98.5566 106.997 85.8963 112.952C64.9338 122.813 36.2106 127.131 15.8107 129.06Z" fill="#111827"/>
<path id="Vector_16" d="M53.1236 123.385C30.0325 110.51 18.2799 88.8873 18.1631 88.6701L19.5645 87.923C19.6813 88.1402 31.2428 109.365 53.8986 122.002L53.1236 123.385Z" fill="#111827"/>
</g>
</g>
</svg>
