<svg xmlns="http://www.w3.org/2000/svg" width="50" height="50" viewBox="0 0 50 50" fill="none">
  <path d="M24.7929 47.3701L25.5 48.0772L26.2071 47.3701L39.2886 34.2886C46.9038 26.6734 46.9038 14.3266 39.2886 6.71142C31.6734 -0.903806 19.3266 -0.903805 11.7114 6.71142C4.09619 14.3266 4.09619 26.6734 11.7114 34.2886L24.7929 47.3701Z" stroke="#EA580C" stroke-width="2"/>
  <path fill-rule="evenodd" clip-rule="evenodd" d="M37.1673 9.03989C43.6109 15.4835 43.6109 25.9308 37.1673 32.3744L25.5 44.0417L13.8327 32.3744C7.38909 25.9308 7.38909 15.4835 13.8327 9.03989C20.2764 2.59624 30.7236 2.59624 37.1673 9.03989ZM25.5 25.4214C28.1036 25.4214 30.2143 23.3108 30.2143 20.7072C30.2143 18.1035 28.1036 15.9929 25.5 15.9929C22.8964 15.9929 20.7857 18.1035 20.7857 20.7072C20.7857 23.3108 22.8964 25.4214 25.5 25.4214Z" fill="#9A3412"/>
</svg>
